<?xml version="1.0" encoding="utf-8"?>
<!-- Generator: Adobe Illustrator 16.0.3, SVG Export Plug-In . SVG Version: 6.00 Build 0)  -->
<!DOCTYPE svg PUBLIC "-//W3C//DTD SVG 1.1//EN" "http://www.w3.org/Graphics/SVG/1.1/DTD/svg11.dtd">
<svg version="1.1" id="Layer_1" xmlns="http://www.w3.org/2000/svg" xmlns:xlink="http://www.w3.org/1999/xlink" x="0px" y="0px"
	 width="700px" height="700px" viewBox="0 0 700 700" enable-background="new 0 0 700 700" xml:space="preserve">
<rect display="none" fill="#BCBEC0" width="700" height="700"/>
<circle fill="none" stroke="#FFFFFF" stroke-width="60" stroke-miterlimit="10" cx="349.032" cy="350.841" r="300"/>
<g display="none">
	<path display="inline" fill="#FFFFFF" d="M373.147,425.18h-55.007v-29.693c0-12.977,1.536-22.635,4.624-28.963
		c3.081-6.33,9.813-14.68,20.202-25.069l35.536-35.535c7.461-8.108,11.195-18.171,11.195-30.181
		c0-12.002-3.895-21.981-11.684-29.938c-7.789-7.948-17.851-11.926-30.181-11.926c-12.337,0-22.636,3.818-30.911,11.439
		c-8.274,7.629-13.067,17.768-14.36,30.424h-58.901c3.24-28.879,14.52-51.515,33.832-67.906
		c19.304-16.383,43.398-24.583,72.289-24.583c28.879,0,52.403,7.872,70.582,23.609c18.172,15.745,27.261,37.726,27.261,65.96
		c0,19.471-5.355,35.703-16.064,48.679c-6.168,7.788-10.876,13.311-14.115,16.551c-3.248,3.248-7.545,7.385-12.9,12.412
		c-5.354,5.036-9.902,9.417-13.63,13.145c-3.734,3.733-6.739,6.897-9.005,9.491c-5.842,7.142-8.763,17.205-8.763,30.182
		L373.147,425.18L373.147,425.18z M346.618,533.247c-10.224,0-19.069-3.484-26.53-10.465c-7.469-6.978-11.196-15.412-11.196-25.313
		c0-9.896,3.651-18.414,10.953-25.557c7.303-7.136,16.064-10.71,26.287-10.71c10.222,0,19.062,3.491,26.529,10.466
		c7.462,6.982,11.197,15.418,11.197,25.313c0,9.903-3.65,18.423-10.952,25.556C365.604,529.68,356.84,533.247,346.618,533.247z"/>
</g>
<path fill="#FFFFFF" d="M488.188,382.939H525v-65.899h-36.818c-3.531-14.858-9.379-28.817-17.172-41.461l26.038-26.033
	l-46.607-46.597l-26.038,26.037c-12.64-7.788-26.582-13.623-41.433-17.153v-36.846h-65.912v36.842
	c-14.859,3.531-28.822,9.369-41.462,17.165l-26.036-26.042l-46.605,46.599l26.04,26.037c-7.792,12.645-13.632,26.6-17.164,41.457
	H175v65.901h36.83c3.531,14.869,9.376,28.828,17.167,41.471l-26.038,26.038l46.604,46.594l26.037-26.031
	c12.641,7.79,26.602,13.624,41.461,17.155v36.842h65.916v-36.842c14.844-3.531,28.797-9.369,41.426-17.152l26.038,26.028
	l46.614-46.594l-26.035-26.038c7.79-12.643,13.639-26.602,17.169-41.471V382.939z M349.995,423.893
	c-40.795,0-73.895-33.075-73.895-73.888c0-40.812,33.1-73.898,73.895-73.898c40.815,0,73.905,33.086,73.905,73.898
	C423.9,390.817,390.811,423.893,349.995,423.893z"/>
</svg>
