<svg width="700" height="700" xmlns="http://www.w3.org/2000/svg">
 <g>
  <title>Layer 1</title>
  <circle id="svg_2" r="340" cy="350.841" cx="349.032" fill="#CCCCCC"/>
  <g id="svg_3">
   <path id="svg_4" d="m373.147003,425.179993l-55.006012,0l0,-29.694c0,-12.976013 1.536011,-22.63501 4.624023,-28.962006c3.080994,-6.329987 9.811981,-14.679993 20.201996,-25.070007l35.53598,-35.535004c7.460999,-8.107971 11.195007,-18.17099 11.195007,-30.181c0,-12.001984 -3.894012,-21.981003 -11.682953,-29.938004c-7.78891,-7.947998 -17.850983,-11.92598 -30.18103,-11.92598c-12.337006,0 -22.636017,3.817993 -30.91098,11.438995c-8.274994,7.629044 -13.067047,17.768005 -14.360046,30.424011l-58.900986,0c3.23999,-28.878998 14.520004,-51.515015 33.831985,-67.906006c19.304047,-16.383011 43.399017,-24.582993 72.289001,-24.582993c28.878998,0 52.404022,7.871994 70.582031,23.608994c18.171997,15.744995 27.260986,37.725998 27.260986,65.959991c0,19.471008 -5.355011,35.703003 -16.063995,48.679016c-6.167999,7.787994 -10.876007,13.310974 -14.115997,16.550995c-3.248016,3.248016 -7.545013,7.38501 -12.899994,12.411987c-5.354004,5.036011 -9.902008,9.416992 -13.630005,13.14502c-3.734009,3.733002 -6.738892,6.897003 -9.004883,9.490997c-5.84201,7.141998 -8.763,17.204987 -8.763,30.181l0,21.903992l-0.001007,0l-0.000031,0l-0.000031,0l-0.000031,0l-0.000031,0zm-26.528992,108.067017c-10.222992,0 -19.069,-3.484009 -26.529999,-10.465027c-7.468994,-6.97699 -11.196014,-15.411987 -11.196014,-25.312958c0,-9.896027 3.651001,-18.414001 10.953003,-25.557007c7.302002,-7.136017 16.063995,-10.710022 26.287018,-10.710022c10.221985,0 19.061005,3.491028 26.528992,10.466003c7.462006,6.982025 11.196991,15.417999 11.196991,25.313019c0,9.903992 -3.649994,18.422974 -10.951996,25.555969c-7.302002,7.143005 -16.06601,10.710022 -26.287994,10.710022z" fill="#FFFFFF"/>
  </g>
 </g>
</svg>