<?xml version="1.0" encoding="utf-8"?>
<!-- Generator: Adobe Illustrator 16.0.3, SVG Export Plug-In . SVG Version: 6.00 Build 0)  -->
<!DOCTYPE svg PUBLIC "-//W3C//DTD SVG 1.1//EN" "http://www.w3.org/Graphics/SVG/1.1/DTD/svg11.dtd">
<svg version="1.1" id="Layer_1" xmlns="http://www.w3.org/2000/svg" xmlns:xlink="http://www.w3.org/1999/xlink" x="0px" y="0px"
	 width="700px" height="700px" viewBox="0 0 700 700" enable-background="new 0 0 700 700" xml:space="preserve">
<rect display="none" fill="#BCBEC0" width="700" height="700"/>
<circle fill="none" stroke="#FFFFFF" stroke-width="60" stroke-miterlimit="10" cx="349.032" cy="350.841" r="300"/>
<g>
	<path fill="#FFFFFF" d="M373.147,425.18h-55.006v-29.694c0-12.976,1.536-22.635,4.624-28.962c3.081-6.33,9.812-14.68,20.202-25.07
		l35.536-35.535c7.461-8.108,11.195-18.171,11.195-30.181c0-12.002-3.894-21.981-11.683-29.938
		c-7.789-7.948-17.851-11.926-30.181-11.926c-12.337,0-22.636,3.818-30.911,11.439c-8.275,7.629-13.067,17.768-14.36,30.424h-58.901
		c3.24-28.879,14.52-51.515,33.832-67.906c19.304-16.383,43.399-24.583,72.289-24.583c28.879,0,52.404,7.872,70.582,23.609
		c18.172,15.745,27.261,37.726,27.261,65.96c0,19.471-5.355,35.703-16.064,48.679c-6.168,7.788-10.876,13.311-14.116,16.551
		c-3.248,3.248-7.545,7.385-12.9,12.412c-5.354,5.036-9.902,9.417-13.63,13.145c-3.734,3.733-6.739,6.897-9.005,9.491
		c-5.842,7.142-8.763,17.205-8.763,30.181V425.18z M346.618,533.247c-10.223,0-19.069-3.484-26.53-10.465
		c-7.469-6.977-11.196-15.412-11.196-25.313c0-9.896,3.651-18.414,10.953-25.557c7.302-7.136,16.064-10.71,26.287-10.71
		c10.222,0,19.061,3.491,26.529,10.466c7.462,6.982,11.197,15.418,11.197,25.313c0,9.904-3.65,18.423-10.952,25.556
		C365.604,529.68,356.84,533.247,346.618,533.247z"/>
</g>
</svg>
