<?xml version="1.0" encoding="utf-8"?>
<!-- Generator: Adobe Illustrator 16.0.3, SVG Export Plug-In . SVG Version: 6.00 Build 0)  -->
<!DOCTYPE svg PUBLIC "-//W3C//DTD SVG 1.1//EN" "http://www.w3.org/Graphics/SVG/1.1/DTD/svg11.dtd">
<svg version="1.1" id="Layer_1" xmlns="http://www.w3.org/2000/svg" xmlns:xlink="http://www.w3.org/1999/xlink" x="0px" y="0px"
	 width="700px" height="700px" viewBox="0 0 700 700" enable-background="new 0 0 700 700" xml:space="preserve">
<rect display="none" fill="#BCBEC0" width="700" height="700"/>
<g display="none">
	<path display="inline" fill="#FFFFFF" d="M373.147,425.18H318.14v-29.693c0-12.977,1.536-22.635,4.624-28.963
		c3.081-6.33,9.813-14.68,20.202-25.068l35.536-35.535c7.461-8.108,11.195-18.171,11.195-30.181
		c0-12.002-3.896-21.981-11.685-29.938c-7.789-7.948-17.851-11.926-30.181-11.926c-12.337,0-22.636,3.818-30.911,11.439
		c-8.273,7.629-13.067,17.768-14.36,30.424H243.66c3.24-28.879,14.52-51.515,33.832-67.906
		c19.304-16.383,43.397-24.583,72.289-24.583c28.879,0,52.402,7.872,70.582,23.609c18.172,15.745,27.261,37.726,27.261,65.96
		c0,19.471-5.355,35.703-16.064,48.679c-6.168,7.788-10.876,13.311-14.114,16.551c-3.248,3.248-7.545,7.385-12.9,12.412
		c-5.354,5.036-9.902,9.417-13.63,13.146c-3.734,3.732-6.739,6.896-9.005,9.49c-5.842,7.143-8.763,17.205-8.763,30.183V425.18
		L373.147,425.18z M346.618,533.247c-10.225,0-19.069-3.484-26.53-10.465c-7.469-6.979-11.196-15.412-11.196-25.313
		c0-9.896,3.651-18.414,10.953-25.557c7.304-7.136,16.064-10.71,26.287-10.71c10.222,0,19.063,3.491,26.529,10.466
		c7.462,6.982,11.197,15.418,11.197,25.313c0,9.902-3.65,18.423-10.952,25.556C365.604,529.68,356.84,533.247,346.618,533.247z"/>
</g>
<path fill="#FFFFFF" d="M567.151,401.762H625V298.206h-57.857c-5.548-23.348-14.738-45.284-26.984-65.153l40.917-40.909
	l-73.238-73.223l-40.917,40.915c-19.864-12.238-41.772-21.408-65.11-26.955V74.979H298.233v57.895
	c-23.349,5.548-45.292,14.722-65.154,26.974l-40.914-40.923l-73.237,73.227l40.92,40.916c-12.245,19.871-21.421,41.8-26.972,65.146
	H75v103.558h57.876c5.548,23.366,14.733,45.303,26.977,65.17l-40.917,40.917l73.235,73.219l40.916-40.906
	c19.865,12.241,41.803,21.409,65.152,26.958v57.895H401.82v-57.895c23.327-5.549,45.254-14.723,65.1-26.953l40.917,40.901
	l73.249-73.219l-40.912-40.917c12.241-19.867,21.434-41.803,26.981-65.17v-0.009H567.151z M349.992,466.116
	c-64.106,0-116.121-51.974-116.121-116.109c0-64.133,52.015-116.125,116.121-116.125c64.137,0,116.137,51.992,116.137,116.125
	C466.129,414.14,414.131,466.116,349.992,466.116z"/>
</svg>
