<?xml version="1.0" encoding="utf-8"?>
<!-- Generator: Adobe Illustrator 16.0.3, SVG Export Plug-In . SVG Version: 6.00 Build 0)  -->
<!DOCTYPE svg PUBLIC "-//W3C//DTD SVG 1.1//EN" "http://www.w3.org/Graphics/SVG/1.1/DTD/svg11.dtd">
<svg version="1.1"
	 id="svg2" xmlns:inkscape="http://www.inkscape.org/namespaces/inkscape" xmlns:sodipodi="http://sodipodi.sourceforge.net/DTD/sodipodi-0.dtd" xmlns:dc="http://purl.org/dc/elements/1.1/" xmlns:rdf="http://www.w3.org/1999/02/22-rdf-syntax-ns#" xmlns:svg="http://www.w3.org/2000/svg" xmlns:cc="http://creativecommons.org/ns#" inkscape:version="0.48.2 r9819" sodipodi:docname="checked.svg"
	 xmlns="http://www.w3.org/2000/svg" xmlns:xlink="http://www.w3.org/1999/xlink" x="0px" y="0px" width="744.094px"
	 height="1052.363px" viewBox="0 0 744.094 1052.363" enable-background="new 0 0 744.094 1052.363" xml:space="preserve">
<sodipodi:namedview  bordercolor="#666666" borderopacity="1.0" id="base" pagecolor="#ffffff" inkscape:cy="469.76931" inkscape:cx="97.857143" showgrid="false" inkscape:zoom="0.35" inkscape:window-width="1280" inkscape:window-y="365" inkscape:pageopacity="0.0" inkscape:current-layer="layer1" inkscape:document-units="px" inkscape:window-maximized="1" inkscape:window-x="1920" inkscape:pageshadow="2" inkscape:window-height="705">
	</sodipodi:namedview>
<g id="layer1" inkscape:groupmode="layer" inkscape:label="Layer 1">
	<path id="path3044" sodipodi:nodetypes="cccccccc" inkscape:connector-curvature="0" fill="#7AC100" d="M334.61,598.291
		L197.619,461.27l52.631-52.632l84.36,84.402l80.976-80.977l98.006-98.005l52.631,52.631L334.61,598.291z"/>
	<g enable-background="new    ">
		<path fill="#7AC100" d="M86.959,650.507c-10.599,0-18.965,3.529-25.099,10.586c-6.135,7.059-9.202,16.723-9.202,28.992
			c0,12.621,2.957,22.373,8.872,29.254c5.914,6.883,14.347,10.322,25.297,10.322c6.728,0,14.401-1.209,23.021-3.627v9.828
			c-6.685,2.508-14.93,3.76-24.736,3.76c-14.205,0-25.165-4.309-32.882-12.928s-11.576-20.867-11.576-36.742
			c0-9.938,1.857-18.645,5.574-26.121c3.715-7.476,9.08-13.236,16.095-17.282c7.014-4.046,15.271-6.069,24.77-6.069
			c10.114,0,18.953,1.848,26.517,5.541l-4.749,9.631C101.559,652.222,94.258,650.507,86.959,650.507z"/>
		<path fill="#7AC100" d="M178.714,738.304v-46.768c0-5.893-1.342-10.291-4.024-13.193s-6.883-4.354-12.599-4.354
			c-7.608,0-13.159,2.067-16.655,6.201c-3.496,4.133-5.244,10.906-5.244,20.316v37.797h-10.95V635.666h10.95v31.068
			c0,3.738-0.177,6.838-0.528,9.301h0.66c2.154-3.474,5.222-6.211,9.202-8.213c3.979-2,8.52-3.001,13.621-3.001
			c8.839,0,15.468,2.101,19.888,6.3s6.629,10.873,6.629,20.02v47.164H178.714z"/>
		<path fill="#7AC100" d="M242.698,739.623c-10.686,0-19.119-3.254-25.297-9.762c-6.179-6.508-9.268-15.545-9.268-27.111
			c0-11.652,2.869-20.91,8.608-27.771c5.738-6.86,13.444-10.29,23.12-10.29c9.059,0,16.227,2.979,21.504,8.938
			c5.276,5.96,7.915,13.82,7.915,23.582v6.926h-49.802c0.22,8.488,2.363,14.932,6.432,19.328c4.066,4.398,9.795,6.596,17.183,6.596
			c7.784,0,15.479-1.627,23.087-4.881v9.762c-3.87,1.672-7.53,2.869-10.982,3.596C251.745,739.259,247.579,739.623,242.698,739.623z
			 M239.729,673.858c-5.805,0-10.433,1.892-13.885,5.673c-3.453,3.782-5.486,9.016-6.102,15.699h37.797
			c0-6.904-1.54-12.191-4.617-15.864C249.843,675.695,245.446,673.858,239.729,673.858z"/>
		<path fill="#7AC100" d="M316.84,739.623c-10.466,0-18.568-3.221-24.307-9.664c-5.739-6.441-8.608-15.555-8.608-27.34
			c0-12.094,2.912-21.439,8.74-28.035c5.826-6.596,14.126-9.895,24.9-9.895c3.474,0,6.948,0.374,10.423,1.121
			c3.473,0.748,6.2,1.627,8.179,2.639l-3.363,9.301c-2.42-0.967-5.058-1.77-7.916-2.408c-2.859-0.637-5.388-0.955-7.586-0.955
			c-14.688,0-22.031,9.366-22.031,28.1c0,8.883,1.791,15.699,5.376,20.449c3.583,4.748,8.894,7.123,15.93,7.123
			c6.024,0,12.203-1.297,18.536-3.891v9.695C330.275,738.371,324.184,739.623,316.84,739.623z"/>
		<path fill="#7AC100" d="M363.081,701.298c1.89-2.682,4.771-6.201,8.641-10.555l23.352-24.735h12.994l-29.287,30.804l31.332,41.492
			h-13.259l-25.527-34.17l-8.245,7.125v27.045h-10.818V635.666h10.818v54.42c0,2.418-0.177,6.156-0.528,11.213H363.081z"/>
		<path fill="#7AC100" d="M453.713,739.623c-10.686,0-19.119-3.254-25.297-9.762c-6.179-6.508-9.268-15.545-9.268-27.111
			c0-11.652,2.869-20.91,8.608-27.771c5.738-6.86,13.444-10.29,23.12-10.29c9.059,0,16.227,2.979,21.504,8.938
			c5.276,5.96,7.915,13.82,7.915,23.582v6.926h-49.802c0.22,8.488,2.363,14.932,6.432,19.328c4.066,4.398,9.795,6.596,17.183,6.596
			c7.784,0,15.479-1.627,23.087-4.881v9.762c-3.87,1.672-7.53,2.869-10.982,3.596C462.76,739.259,458.594,739.623,453.713,739.623z
			 M450.745,673.858c-5.805,0-10.433,1.892-13.885,5.673c-3.453,3.782-5.486,9.016-6.102,15.699h37.797
			c0-6.904-1.54-12.191-4.617-15.864C460.859,675.695,456.461,673.858,450.745,673.858z"/>
		<path fill="#7AC100" d="M548.173,728.607h-0.594c-5.058,7.346-12.622,11.016-22.691,11.016c-9.456,0-16.811-3.232-22.064-9.695
			c-5.256-6.465-7.883-15.656-7.883-27.574c0-11.916,2.639-21.174,7.915-27.77c5.277-6.596,12.621-9.895,22.032-9.895
			c9.806,0,17.325,3.563,22.56,10.686h0.857l-0.462-5.211l-0.264-5.078v-29.42h10.949v102.639h-8.904L548.173,728.607z
			 M526.273,730.455c7.476,0,12.896-2.033,16.26-6.102c3.364-4.068,5.047-10.631,5.047-19.691v-2.309
			c0-10.244-1.705-17.556-5.112-21.932c-3.408-4.375-8.851-6.563-16.326-6.563c-6.421,0-11.335,2.496-14.742,7.487
			c-3.409,4.99-5.112,12.037-5.112,21.141c0,9.234,1.692,16.205,5.079,20.91C514.751,728.103,519.72,730.455,526.273,730.455z"/>
		<path fill="#7AC100" d="M618.49,738.304v-96.438h11.214v96.438H618.49z"/>
		<path fill="#7AC100" d="M703.978,738.304v-46.768c0-5.893-1.342-10.291-4.024-13.193s-6.883-4.354-12.599-4.354
			c-7.564,0-13.104,2.045-16.623,6.135s-5.276,10.84-5.276,20.25v37.93h-10.95v-72.296h8.905l1.781,9.895h0.527
			c2.243-3.562,5.387-6.321,9.433-8.278s8.553-2.936,13.522-2.936c8.707,0,15.259,2.101,19.657,6.299
			c4.396,4.201,6.596,10.918,6.596,20.152v47.164H703.978z"/>
	</g>
</g>
</svg>
