<?xml version="1.0" encoding="utf-8"?>
<!-- Generator: Adobe Illustrator 16.0.3, SVG Export Plug-In . SVG Version: 6.00 Build 0)  -->
<!DOCTYPE svg PUBLIC "-//W3C//DTD SVG 1.1//EN" "http://www.w3.org/Graphics/SVG/1.1/DTD/svg11.dtd">
<svg version="1.1" id="Layer_1" xmlns="http://www.w3.org/2000/svg" xmlns:xlink="http://www.w3.org/1999/xlink" x="0px" y="0px"
	 width="700px" height="700px" viewBox="0 0 700 700" enable-background="new 0 0 700 700" xml:space="preserve">
<g>
	<path fill="#FFFFFF" d="M199.25,135.39l-15,69.601h2.7c24.9,0,42.601-29.101,42.601-52.5c0-16.8-9.6-31.5-33-31.5
		c-48.601,0-81.001,27.3-81.001,72.901c0,15.3,3.9,17.7,4.2,20.4c-20.7,0-32.101-7.5-32.101-29.1
		c0-39.9,55.201-78.001,105.301-78.001c47.4,0,68.101,23.4,68.101,48c0,18.3-11.7,39.301-32.4,51.301c15.601,4.5,20.7,15.9,20.7,30
		c0,24.601-14.7,57.301-14.7,75.901c0,9,4.5,17.1,11.7,19.8c-12.6,3.6-22.5,5.1-29.7,5.1c-19.5,0-23.4-10.2-23.4-20.1
		c0-19.8,15.601-56.101,15.601-78.901c0-12-4.5-20.4-18-20.4c-2.7,0-6,0.3-9.6,1.2l-24,113.101h-43.201l40.8-190.802L199.25,135.39z
		"/>
	<path fill="#FFFFFF" d="M379.249,223.291c1.8,1.8,4.5,2.7,8.699,2.7c14.101,0,20.4-10.2,31.501-14.7l1.2,6.3
		c-9.301,11.7-24.9,21.6-42.301,26.4c-5.7,60.3-38.4,90-68.4,90c-32.101,0-45.901-13.5-45.901-49.2
		c0-73.801,37.5-105.601,78.901-105.601C371.448,179.19,378.648,201.391,379.249,223.291z M356.148,246.991
		c-8.7,0-12.601-6.3-12.601-13.5c0-8.7,5.101-18,13.2-21c-0.899-9.9-4.2-15.6-12.6-15.6c-28.2,0-40.2,61.201-40.2,85.201
		c0,18,8.399,22.8,20.1,22.8C342.349,304.892,352.548,276.091,356.148,246.991z"/>
	<path fill="#FFFFFF" d="M471.048,122.19l-34.501,162.001c-0.899,4.5-1.5,7.2-1.5,9.6c0,6.6,3.3,11.1,15,11.1
		c12.001,0,27.601-16.8,39.601-26.4h10.2c-13.8,13.8-47.7,53.701-71.101,53.701c-23.101,0-37.2-10.2-37.2-32.7
		c0-4.5,0.6-9.6,1.8-15.3l33.301-156.001L471.048,122.19z"/>
	<path fill="#FFFFFF" d="M514.55,284.191c-0.899,3.6-1.5,6.9-1.5,10.2c0,6.3,2.4,11.1,10.801,11.1c2.1,0,5.399,0,7.8-0.9
		c-8.4,25.8-21,27.6-31.2,27.6c-21.301,0-30.601-14.1-30.601-33c0-4.8,0.6-9.9,1.8-15L504.65,128.19l44.4-6L514.55,284.191z"/>
</g>
<g>
	<path fill="#FFFFFF" d="M300.686,516.906c-15.9,43.801-55.8,52.801-84,52.801c-30.601,0-65.701-15-65.701-76.501
		c0-65.4,21.3-150.301,101.101-150.301c27.9,0,52.2,11.1,52.2,40.201c0,15.9-5.7,27.601-21,27.601c-4.8,0-11.4-1.2-17.1-7.801
		c7.5-2.1,13.2-17.101,13.2-24.601c0-4.799-1.5-21.3-20.7-21.3c-36.9,0-60.601,76.201-60.601,129.602
		c0,39.301,7.2,56.101,39.6,56.101c23.1,0,45-9.601,56.101-28.801L300.686,516.906z"/>
	<path fill="#FFFFFF" d="M431.184,417.905l-21.6,102.001c-0.6,3.301-1.199,6.601-1.199,9.301c0,6.6,3,11.4,15,11.4
		s27.6-16.801,39.6-26.4h10.201c-13.801,13.8-47.701,53.7-71.102,53.7c-19.5,0-32.701-7.2-36.6-22.8
		c-9.001,12.3-22.501,24.6-40.801,24.6c-28.8,0-37.2-20.4-37.2-38.101c0-51.601,18.6-113.4,78.601-113.4c7.199,0,14.699,3,20.1,7.5
		l1.801-7.801H431.184z M327.983,523.507c0,18,9.9,21.3,17.4,21.3c6.9,0,13.5-6.6,19.201-15c0.299-3,0.9-6.3,1.799-9.9l16.801-79.5
		c-4.801-4.2-10.5-5.4-14.699-5.4C345.983,435.006,327.983,482.706,327.983,523.507z"/>
	<path fill="#FFFFFF" d="M521.48,357.905l-34.5,162.001c-0.9,4.501-1.5,7.2-1.5,9.601c0,6.6,3.299,11.101,15,11.101
		c12,0,27.6-16.801,39.6-26.4h10.201c-13.801,13.8-47.701,53.7-71.102,53.7c-23.1,0-37.199-10.2-37.199-32.7
		c0-4.5,0.6-9.601,1.799-15.301l33.301-156.001L521.48,357.905z"/>
	<path fill="#FFFFFF" d="M564.982,519.906c-0.898,3.601-1.5,6.9-1.5,10.2c0,6.301,2.4,11.101,10.801,11.101c2.1,0,5.4,0,7.801-0.9
		c-8.4,25.801-21,27.601-31.201,27.601c-21.301,0-30.6-14.101-30.6-33c0-4.801,0.6-9.9,1.799-15.001l33.002-156.001l44.4-6
		L564.982,519.906z"/>
</g>
</svg>
