<?xml version="1.0" encoding="utf-8"?>
<!-- Generator: Adobe Illustrator 16.0.3, SVG Export Plug-In . SVG Version: 6.00 Build 0)  -->
<!DOCTYPE svg PUBLIC "-//W3C//DTD SVG 1.1//EN" "http://www.w3.org/Graphics/SVG/1.1/DTD/svg11.dtd">
<svg version="1.1" id="Layer_1" xmlns="http://www.w3.org/2000/svg" xmlns:xlink="http://www.w3.org/1999/xlink" x="0px" y="0px"
	 width="200px" height="200px" viewBox="0 0 200 200" enable-background="new 0 0 200 200" xml:space="preserve">
<polygon fill="#999999" points="57.078,100.703 91.614,150.779 153.805,56.451 91.157,117.574 "/>
<path fill="#999999" d="M100,175c-41.355,0-75-33.646-75-75c0-41.354,33.645-75,75-75c41.355,0,75,33.646,75,75
	C175,141.354,141.355,175,100,175z M100,36.538c-34.993,0-63.461,28.469-63.461,63.461S65.007,163.463,100,163.463
	c34.992,0,63.462-28.471,63.462-63.463S134.992,36.538,100,36.538z"/>
</svg>
