<?xml version="1.0" encoding="utf-8"?>
<!-- Generator: Adobe Illustrator 16.0.3, SVG Export Plug-In . SVG Version: 6.00 Build 0)  -->
<!DOCTYPE svg PUBLIC "-//W3C//DTD SVG 1.1//EN" "http://www.w3.org/Graphics/SVG/1.1/DTD/svg11.dtd">
<svg version="1.1" id="Layer_1" xmlns="http://www.w3.org/2000/svg" xmlns:xlink="http://www.w3.org/1999/xlink" x="0px" y="0px"
	 width="200px" height="200px" viewBox="0 0 200 200" enable-background="new 0 0 200 200" xml:space="preserve">
<path fill="#999999" d="M100,175c-41.355,0-75-33.646-75-75c0-41.354,33.645-75,75-75c41.355,0,75,33.646,75,75
	C175,141.354,141.355,175,100,175z M100,36.538c-34.993,0-63.461,28.469-63.461,63.461S65.007,163.463,100,163.463
	c34.992,0,63.462-28.471,63.462-63.463S134.992,36.538,100,36.538z"/>
<path fill="#999999" d="M67.936,124.068c-0.174-1.504-1.576-3.483-2.094-4.915c-1.562-4.313-2.604-8.832-2.984-13.407
	c-0.904-10.893,2.008-22.94,9.33-31.289c11.744-13.391,27.798-12.917,43.31-7.038c0.203,0.077,4.138,1.868,4.175,1.825
	c0.002-0.002,6.033-6.811,6.033-6.811v33.674H97.974l8.476-11.185c0,0-18.949-9.762-32.353,9.321
	C65.845,105.988,67.935,124.063,67.936,124.068z"/>
<path fill="#999999" d="M139.609,79.699c0.09,1.947,1.699,4.631,2.167,6.574c1.332,5.526,1.895,11.293,1.433,16.966
	c-0.956,11.737-6.982,24.516-17.68,30.35c-7.912,4.315-16.906,4.631-25.396,2.149c-1.159-0.339-15.806-7.004-15.821-6.99
	c-0.001,0.001-6.477,6.135-6.477,6.135l2.303-33.549l27.629,2.988l-9.211,10.232c0,0,18.212,11.768,32.873-5.801
	C140.452,97.938,139.609,79.706,139.609,79.699z"/>
</svg>
